<svg xmlns="http://www.w3.org/2000/svg" xmlns:xlink="http://www.w3.org/1999/xlink" width="480" height="200" viewBox="0 0 480 200">
  <defs>
    <clipPath id="clip-Artboard_1">
      <rect width="480" height="200"/>
    </clipPath>
  </defs>
  <g id="Artboard_1" data-name="Artboard 1" clip-path="url(#clip-Artboard_1)">
    <rect width="480" height="200" fill="#fff"/>
    <path id="Path_2931" data-name="Path 2931" d="M9733.316,5622.578c25.813,2.431,35.557,2.629,47.394,2.513,11.331-.374,19.866,1.247,29.456-8.9,10.026-10.393,8.839-15.8,2.79-14.115-8.977,2.685-41.725,13.84-80.362,19.221-1.739.228-1.315,1.154.723,1.278" transform="translate(-9367.358 -5524.853)" fill="#b71d20"/>
    <path id="Path_2932" data-name="Path 2932" d="M9723.37,5615.119c26.419-6.722,92.513-42.247,102.316-48.554,4.846-3.025,10.162-1.232,1.626,12.679-5.792,8.557-9.809,13.526-25.3,18.229-10.687,4.041-50.256,15.558-77.977,18.9-2.053.171-2.7-.584-.664-1.257" transform="translate(-9366.157 -5520.182)" fill="#ffbe0b"/>
    <path id="Path_2933" data-name="Path 2933" d="M9726.078,5606.618c23.04-8.077,73.212-34.484,90.3-44.979,12.3-7.492,21.812-13.018,25.541-22.4,7.954-21.446,1.871-30.169-5.681-23.48-9.653,9.376-54.992,56.952-113.034,90.4-.871.507-1.025,1.66,2.872.461" transform="translate(-9366.229 -5513.55)" fill="#557c39"/>
    <path id="Path_2934" data-name="Path 2934" d="M9313.851,5669.6l5.747-4.115v-49.349l-5.747-4.093h44.377v9.871l-7.4-5.778h-23V5636.7h16.445l6.559-4.915v13.975l-6.559-4.944h-16.445v24.67h23.849l8.207-6.583v10.7Z" transform="translate(-9313.851 -5526.168)" fill="#b71d20"/>
    <path id="Path_2935" data-name="Path 2935" d="M9394.853,5665.047l2.477,1.646c-1.137,2.291-5.382,5.308-10.818,5.317-5.775,0-9.75-3.72-9.75-8.61v-30.408h-8.208l16.436-11.519v8.217h12.341v3.3h-12.341V5667.5a4.073,4.073,0,0,0,2.918.972,7.875,7.875,0,0,0,6.946-3.428" transform="translate(-9320.858 -5527.377)" fill="#b71d20"/>
    <path id="Path_2936" data-name="Path 2936" d="M9404.365,5669.359l5.764-4.116v-46.854l-5.764-4.117,13.98-4.12v26.3l4.689-3.73a24.737,24.737,0,0,1,15.059-5.3c9.211,0,12.314,4.3,12.314,9.856v27.957l5.768,4.116H9442.2v-32.073c0-1.812-1.559-4.916-6.57-4.916a18.956,18.956,0,0,0-11.961,4.449l-5.318,3.748v24.676l5.758,4.116Z" transform="translate(-9325.447 -5525.927)" fill="#b71d20"/>
    <path id="Path_2937" data-name="Path 2937" d="M9528.718,5651.348c-.009-8.609-3.854-18.1-14.8-18.1-10.816.008-14.79,9.5-14.79,18.1.013,8.583,3.974,18.079,14.79,18.079,10.948,0,14.81-9.5,14.8-18.079m-14.8-21.38c14.723-.026,24.661,10.29,24.673,21.38,0,11.052-9.95,21.357-24.673,21.373-14.591,0-24.656-10.32-24.662-21.373-.008-11.09,10.071-21.376,24.662-21.38" transform="translate(-9336.322 -5528.465)" fill="#b71d20"/>
    <path id="Path_2938" data-name="Path 2938" d="M9561.7,5640.65v21.373c2.651,4.473,7.613,6.571,13.167,6.569,10.419,0,13.146-9.62,13.139-17.244,0-7.648-2.72-17.3-13.139-17.275-5.554.007-10.532,1.986-13.167,6.577m-13.991,47.681,5.767-4.113v-45.224l-5.767-4.086,13.991-4.133v4.94c3.824-4.99,11.536-5.749,16.45-5.749,12.077-.018,19.725,10.682,19.725,21.38,0,9.916-7.647,21.361-19.725,21.373-4.914,0-12.168-1-16.45-5.763v17.261l4.929,4.113Z" transform="translate(-9343.812 -5528.465)" fill="#b71d20"/>
    <path id="Path_2939" data-name="Path 2939" d="M9642.586,5661.2c0,5.172,3.254,6.583,5.768,6.583,1.119,0,3.656-1.087,4.918-1.646l11.51-4.937v-10.69h-9.029c-7.939.014-13.166,4.111-13.166,10.69m-3.293-18.9v-9.045c3.775-2.1,11.176-3.281,16.459-3.281,11.373,0,17.266,3.511,17.266,9.856v27.958l5.738,4.116h-13.975v-6.59l-15.617,6.59a15,15,0,0,1-4.928.824,10.362,10.362,0,0,1-10.7-10.687c-.006-8.037,9.162-14.792,19.734-14.806h11.51v-7.4c0-3.816-4.012-6.575-9.029-6.575a10.52,10.52,0,0,0-6.791,1.976Z" transform="translate(-9354.807 -5528.465)" fill="#b71d20"/>
    <path id="Path_2940" data-name="Path 2940" d="M9720.074,5629.968c11.533,0,13.983,6.072,13.983,9.856v27.958l5.744,4.116h-13.971v-32.073c0-2.021-1.6-4.915-8.209-4.915a17.361,17.361,0,0,0-12.351,4.086l-4.937,4.111v24.676l5.77,4.116h-19.727l5.745-4.116v-28.787l-5.745-4.086,13.957-4.13v8.216l4.13-3.487c6.773-5.161,12.588-5.54,15.609-5.54" transform="translate(-9361.576 -5528.465)" fill="#b71d20"/>
    <path id="Path_2941" data-name="Path 2941" d="M9465.664,5672.016l5.769-4.116v-28.786l-5.769-4.086,14-4.132v37l5.756,4.116Z" transform="translate(-9333.3 -5528.584)" fill="#b71d20"/>
    <path id="Path_2942" data-name="Path 2942" d="M9471.322,5620.989c0-1.824,2.05-3.3,4.535-3.3s4.526,1.476,4.526,3.3-2.037,3.29-4.526,3.29-4.535-1.475-4.535-3.29" transform="translate(-9334.024 -5526.892)" fill="#b71d20"/>
    <path id="Path_2943" data-name="Path 2943" d="M9608.069,5672.016l5.759-4.116v-28.786l-5.759-4.086,13.986-4.132v37l5.76,4.116Z" transform="translate(-9351.544 -5528.584)" fill="#b71d20"/>
    <path id="Path_2944" data-name="Path 2944" d="M9613.753,5620.989c0-1.824,2.008-3.3,4.512-3.3s4.52,1.476,4.52,3.3-2.028,3.29-4.52,3.29-4.512-1.475-4.512-3.29" transform="translate(-9352.271 -5526.892)" fill="#b71d20"/>
    <path id="Path_2945" data-name="Path 2945" d="M9516.489,5726.153l4.4,3.395a2.518,2.518,0,0,1,1.457,2.326v3.646l-3.4,2.419h11.623l-3.389-2.419v-3.876c0-1.931-.259-3.37-2.074-4.726l-4.849-3.887c-1.762-1.253-1.74-1.421-2.736-2.1,0,0,3.922.222,5.779.169,7.436.125,10.863-1.67,11.884-3.844a10.518,10.518,0,0,0,.729-5.13c-.119-2.393-.318-2.693-.908-3.815-1.717-3.136-6.9-4.266-12.7-4.266-5.337,0-11.1,1.8-12.842,5.83a8.06,8.06,0,0,0-.7,2.752c.026,2.774-.67,6.937,2.821,9.634Zm-2.449-13.939c.056-4.066,3.306-6.179,8.269-6.21,4.788-.054,8.411,1.038,8.334,5.845v1.746c-.029,2.6-1.047,4.741-4.78,5.088a46.686,46.686,0,0,1-10.152.06c-2.038-.4-1.715-3.8-1.67-4.966Z" transform="translate(-9338.816 -5537.956)" fill="#b71d20"/>
    <path id="Path_2946" data-name="Path 2946" d="M9597.369,5721.008v14.512l-3.4,2.419h11.62l-3.367-2.419v-14.512h8.692v5.31h8.219l-3.386-2.411v-4.843h-13.525v-7.748c0-1.936-.98-2.412-2.439-2.412h-2.416v-4.863l-8.235,2.433,3.38,2.43v1.932h4.855v8.228h-13.543v4.843l-3.412,2.411h8.229v-5.31Z" transform="translate(-9348.001 -5537.956)" fill="#b71d20"/>
    <path id="Path_2947" data-name="Path 2947" d="M9648.389,5713.595c-.057,2.6-1.056,4.741-4.783,5.09a47.164,47.164,0,0,1-10.176.061c-2.02-.4-1.7-3.805-1.652-4.97v-1.562c.07-4.066,3.3-6.179,8.248-6.21,4.782-.054,8.429,1.038,8.363,5.845Zm15.4,7.413-3.39-2.437v-4.829h-6.729c0-.5,0-1.036-.03-1.619-.112-2.393-.294-2.693-.912-3.815-1.72-3.136-6.874-4.266-12.7-4.266-5.318,0-11.087,1.8-12.829,5.83a8.649,8.649,0,0,0-.732,2.752c.035,2.776-.633,6.937,2.854,9.634l4.9,3.9,4.4,3.395a2.466,2.466,0,0,1,1.438,2.326v3.646l-3.387,2.419H9648.3l-3.386-2.419v-3.876c0-1.931-.252-3.37-2.079-4.726l-4.841-3.887c-1.757-1.253-1.757-1.421-2.743-2.1,0,0,3.929.222,5.789.169,7.439.125,10.866-1.67,11.891-3.844a7.549,7.549,0,0,0,.521-1.579h2.086v5.334Z" transform="translate(-9353.896 -5537.956)" fill="#b71d20"/>
    <path id="Path_2948" data-name="Path 2948" d="M9721.007,5712.214c.069-4.066,3.313-6.179,8.253-6.21,4.8-.054,8.411,1.038,8.355,5.845v1.746c-.015,2.6-1.054,4.741-4.779,5.088a46.824,46.824,0,0,1-10.154.063c-2.028-.4-1.71-3.805-1.675-4.97Zm3.483,8.713s3.924.222,5.781.169c7.448.125,10.88-1.67,11.882-3.844a10.708,10.708,0,0,0,.724-5.13c-.122-2.393-.283-2.694-.907-3.815-1.7-3.136-6.887-4.266-12.71-4.266-5.318,0-11.091,1.8-12.812,5.83a8.658,8.658,0,0,0-.739,2.752c.042,2.776-.644,6.937,2.847,9.634l10.686,8.552-15.5,1.34v3.376l-3.393,2.43h11.605l-3.36-2.43v-1.9l17.424-1.479v-1.943Z" transform="translate(-9364.648 -5537.956)" fill="#b71d20"/>
    <path id="Path_2949" data-name="Path 2949" d="M9580.494,5737.939l-3.4-2.419v-4.359h-2.409l-4.361,2.917v-9.841c-.147-5.694-7.171-6.114-14.985-5.14l6.267-8.262V5708.9h-7.271v-4.863l-8.212,2.433,3.386,2.43v1.932h6.658l-7.394,9.706a9.59,9.59,0,0,0-2.172,5.776v9.2l-3.457,2.419h11.681l-3.386-2.419v-9.2a5.287,5.287,0,0,1,1.033-3.357c.405-.54.642-.9.795-1.117a1.5,1.5,0,0,1,.765-.493c1.249-.327,11.449-1.711,11.449,3.272v10.407c0,1.948.958,2.91,1.938,2.91a3.632,3.632,0,0,0,1.928-.481,26.706,26.706,0,0,0,2.9-1.938v2.419Z" transform="translate(-9343.228 -5537.956)" fill="#b71d20"/>
    <path id="Path_2950" data-name="Path 2950" d="M9683.846,5720.851c-5.436-.127-7.084-.972-7.084-5.272,0-4.25,5.033-4.781,7.729-4.837,6.6-.135,7.79,1.973,7.72,4.233-.034,1.449,0,2.868-3.228,4.063-.619.23-3.062,1.1-5.137,1.813m13.143,9.007c0-5.521-3.966-6.365-7.288-6.714.44-.154,1.6-.6,2.021-.749,4.365-1.609,5.45-3.476,5.555-6.625v-.1h1.928v5.334h8.228l-3.374-2.437v-4.829h-7.028c-.709-2.447-3.172-4.719-10.21-4.837v-4.863l-8.23,2.433,3.393,2.43c-4.98,0-10.159,2.09-10.368,6.8-.193,4.479,3.095,6.651,7.533,6.771l-4.966,1.735c-2.6,1-4.283,2.107-4.283,6.462v4.847l-3.416,2.419h11.625l-3.388-2.419v-4.408c0-1.386-.261-2.458,1.932-3.208,0,0,7.939-2.827,8.31-2.932,3.876.291,7.18.536,7.18,4.832v5.715l-3.384,2.419h11.628l-3.395-2.419Z" transform="translate(-9359.027 -5537.956)" fill="#b71d20"/>
  </g>
</svg>
